<?xml version="1.0" encoding="UTF-8" standalone="no"?>
<!DOCTYPE svg PUBLIC "-//W3C//DTD SVG 1.1//EN"
 "http://www.w3.org/Graphics/SVG/1.1/DTD/svg11.dtd">
<!-- Generated by graphviz version 2.40.1 (20161225.0304)
 -->
<!-- Title: G Pages: 1 -->
<svg width="392pt" height="465pt"
 viewBox="0.00 0.00 392.00 465.00" xmlns="http://www.w3.org/2000/svg" xmlns:xlink="http://www.w3.org/1999/xlink">
<g id="graph0" class="graph" transform="scale(1 1) rotate(0) translate(4 461)">
<title>G</title>
<polygon fill="#ffffff" stroke="transparent" points="-4,4 -4,-461 388,-461 388,4 -4,4"/>
<g id="clust1" class="cluster">
<title>cluster_A_group_of_targets</title>
<path fill="#eeeeee" stroke="#c0c0c0" d="M20,-8C20,-8 146,-8 146,-8 152,-8 158,-14 158,-20 158,-20 158,-345 158,-345 158,-351 152,-357 146,-357 146,-357 20,-357 20,-357 14,-357 8,-351 8,-345 8,-345 8,-20 8,-20 8,-14 14,-8 20,-8"/>
<text text-anchor="middle" x="83" y="-341.8" font-family="Times,serif" font-size="14.00" fill="#000000">A group of targets</text>
</g>
<g id="clust2" class="cluster">
<title>cluster_Another_group</title>
<path fill="#eeeeee" stroke="#c0c0c0" d="M178,-85C178,-85 254,-85 254,-85 260,-85 266,-91 266,-97 266,-97 266,-437 266,-437 266,-443 260,-449 254,-449 254,-449 178,-449 178,-449 172,-449 166,-443 166,-437 166,-437 166,-97 166,-97 166,-91 172,-85 178,-85"/>
<text text-anchor="middle" x="216" y="-433.8" font-family="Times,serif" font-size="14.00" fill="#000000">Another group</text>
</g>
<g id="clust3" class="cluster">
<title>cluster_Misc</title>
<path fill="#eeeeee" stroke="#c0c0c0" d="M286,-374C286,-374 364,-374 364,-374 370,-374 376,-380 376,-386 376,-386 376,-437 376,-437 376,-443 370,-449 364,-449 364,-449 286,-449 286,-449 280,-449 274,-443 274,-437 274,-437 274,-386 274,-386 274,-380 280,-374 286,-374"/>
<text text-anchor="middle" x="325" y="-433.8" font-family="Times,serif" font-size="14.00" fill="#000000">Misc</text>
</g>
<!-- root_target -->
<g id="node1" class="node">
<title>root_target</title>
<path fill="#add8e6" stroke="#000000" stroke-width="3" d="M126,-326C126,-326 76,-326 76,-326 70,-326 64,-320 64,-314 64,-314 64,-296 64,-296 64,-290 70,-284 76,-284 76,-284 126,-284 126,-284 132,-284 138,-290 138,-296 138,-296 138,-314 138,-314 138,-320 132,-326 126,-326"/>
<text text-anchor="start" x="72" y="-311.8" font-family="Times,serif" font-size="14.00" fill="#000000">root&#45;target</text>
<text text-anchor="start" x="82" y="-301" font-family="Times,serif" font-size="10.00" fill="#000000">I have no</text>
<text text-anchor="start" x="73" y="-291" font-family="Times,serif" font-size="10.00" fill="#000000">dependencies</text>
</g>
<!-- no_recipes -->
<g id="node2" class="node">
<title>no_recipes</title>
<path fill="#add8e6" stroke="#000000" stroke-dasharray="5,2" d="M130.5,-208C130.5,-208 71.5,-208 71.5,-208 65.5,-208 59.5,-202 59.5,-196 59.5,-196 59.5,-178 59.5,-178 59.5,-172 65.5,-166 71.5,-166 71.5,-166 130.5,-166 130.5,-166 136.5,-166 142.5,-172 142.5,-178 142.5,-178 142.5,-196 142.5,-196 142.5,-202 136.5,-208 130.5,-208"/>
<text text-anchor="start" x="72.5" y="-193.8" font-family="Times,serif" font-size="14.00" fill="#000000">no&#45;recipes</text>
<text text-anchor="start" x="82" y="-183" font-family="Times,serif" font-size="10.00" fill="#000000">I have no</text>
<text text-anchor="start" x="67.5" y="-173" font-family="Times,serif" font-size="10.00" fill="#000000">effective recipes</text>
</g>
<!-- root_target&#45;&gt;no_recipes -->
<g id="edge1" class="edge">
<title>root_target&#45;&gt;no_recipes</title>
<path fill="none" stroke="#ff0000" stroke-opacity="0.666667" d="M101,-283.904C101,-265.7268 101,-239.2256 101,-218.5298"/>
<polygon fill="#ff0000" fill-opacity="0.666667" stroke="#ff0000" stroke-opacity="0.666667" points="104.5001,-218.3112 101,-208.3112 97.5001,-218.3113 104.5001,-218.3112"/>
</g>
<!-- two_hashes_comment -->
<g id="node3" class="node">
<title>two_hashes_comment</title>
<path fill="#add8e6" stroke="#000000" d="M138,-68C138,-68 28,-68 28,-68 22,-68 16,-62 16,-56 16,-56 16,-28 16,-28 16,-22 22,-16 28,-16 28,-16 138,-16 138,-16 144,-16 150,-22 150,-28 150,-28 150,-56 150,-56 150,-62 144,-68 138,-68"/>
<text text-anchor="start" x="24" y="-53.8" font-family="Times,serif" font-size="14.00" fill="#000000">two&#45;hashes&#45;comment</text>
<text text-anchor="start" x="61.5" y="-43" font-family="Times,serif" font-size="10.00" fill="#000000">I am listed</text>
<text text-anchor="start" x="53.5" y="-33" font-family="Times,serif" font-size="10.00" fill="#000000">in `make help`</text>
<text text-anchor="start" x="36" y="-23" font-family="Times,serif" font-size="10.00" fill="#000000">and highlighted bluish</text>
</g>
<!-- no_recipes&#45;&gt;two_hashes_comment -->
<g id="edge2" class="edge">
<title>no_recipes&#45;&gt;two_hashes_comment</title>
<path fill="none" stroke="#ff0000" stroke-opacity="0.666667" d="M98.3826,-165.9158C95.5295,-142.9319 90.9131,-105.7445 87.4809,-78.096"/>
<polygon fill="#ff0000" fill-opacity="0.666667" stroke="#ff0000" stroke-opacity="0.666667" points="90.9349,-77.5086 86.2296,-68.0159 83.9882,-78.371 90.9349,-77.5086"/>
</g>
<!-- ordered -->
<g id="node6" class="node">
<title>ordered</title>
<path fill="#add8e6" stroke="#000000" d="M241,-135C241,-135 187,-135 187,-135 181,-135 175,-129 175,-123 175,-123 175,-105 175,-105 175,-99 181,-93 187,-93 187,-93 241,-93 241,-93 247,-93 253,-99 253,-105 253,-105 253,-123 253,-123 253,-129 247,-135 241,-135"/>
<text text-anchor="start" x="193" y="-120.8" font-family="Times,serif" font-size="14.00" fill="#000000">ordered</text>
<text text-anchor="start" x="183" y="-110" font-family="Times,serif" font-size="10.00" fill="#000000">I have multiple</text>
<text text-anchor="start" x="186" y="-100" font-family="Times,serif" font-size="10.00" fill="#000000">dependencies</text>
</g>
<!-- no_recipes&#45;&gt;ordered -->
<g id="edge4" class="edge">
<title>no_recipes&#45;&gt;ordered</title>
<path fill="none" stroke="#ff0000" stroke-opacity="0.666667" d="M133.6843,-165.8854C145.8652,-158.0163 159.8537,-148.9794 172.7077,-140.6756"/>
<polygon fill="#ff0000" fill-opacity="0.666667" stroke="#ff0000" stroke-opacity="0.666667" points="174.8887,-143.4335 181.3892,-135.0672 171.0902,-137.5537 174.8887,-143.4335"/>
<text text-anchor="middle" x="170.5" y="-146.8" font-family="Times,serif" font-size="14.00" fill="#000000">1</text>
</g>
<!-- foo -->
<g id="node4" class="node">
<title>foo</title>
<path fill="#d3d3d3" stroke="#000000" stroke-width="3" d="M231,-418C231,-418 201,-418 201,-418 195,-418 189,-412 189,-406 189,-406 189,-394 189,-394 189,-388 195,-382 201,-382 201,-382 231,-382 231,-382 237,-382 243,-388 243,-394 243,-394 243,-406 243,-406 243,-412 237,-418 231,-418"/>
<text text-anchor="middle" x="216" y="-396.3" font-family="Times,serif" font-size="14.00" fill="#000000">foo</text>
</g>
<!-- bar -->
<g id="node5" class="node">
<title>bar</title>
<path fill="#d3d3d3" stroke="#000000" d="M245.5,-267C245.5,-267 186.5,-267 186.5,-267 180.5,-267 174.5,-261 174.5,-255 174.5,-255 174.5,-237 174.5,-237 174.5,-231 180.5,-225 186.5,-225 186.5,-225 245.5,-225 245.5,-225 251.5,-225 257.5,-231 257.5,-237 257.5,-237 257.5,-255 257.5,-255 257.5,-261 251.5,-267 245.5,-267"/>
<text text-anchor="start" x="207" y="-252.8" font-family="Times,serif" font-size="14.00" fill="#000000">bar</text>
<text text-anchor="start" x="200" y="-242" font-family="Times,serif" font-size="10.00" fill="#000000">I have a</text>
<text text-anchor="start" x="182.5" y="-232" font-family="Times,serif" font-size="10.00" fill="#000000">simple comment</text>
</g>
<!-- foo&#45;&gt;bar -->
<g id="edge3" class="edge">
<title>foo&#45;&gt;bar</title>
<path fill="none" stroke="#ff0000" stroke-opacity="0.666667" d="M216,-381.7294C216,-356.072 216,-308.9954 216,-277.5936"/>
<polygon fill="#ff0000" fill-opacity="0.666667" stroke="#ff0000" stroke-opacity="0.666667" points="219.5001,-277.2009 216,-267.2009 212.5001,-277.201 219.5001,-277.2009"/>
</g>
<!-- bar&#45;&gt;ordered -->
<g id="edge5" class="edge">
<title>bar&#45;&gt;ordered</title>
<path fill="none" stroke="#ff0000" stroke-opacity="0.666667" d="M215.6787,-224.7919C215.3536,-203.3346 214.8472,-169.9177 214.4756,-145.3919"/>
<polygon fill="#ff0000" fill-opacity="0.666667" stroke="#ff0000" stroke-opacity="0.666667" points="217.9717,-145.1012 214.3205,-135.1555 210.9725,-145.2074 217.9717,-145.1012"/>
<text text-anchor="middle" x="218.5" y="-183.3" font-family="Times,serif" font-size="14.00" fill="#000000">2</text>
</g>
<!-- help -->
<g id="node7" class="node">
<title>help</title>
<path fill="#add8e6" stroke="#000000" stroke-width="3" d="M356,-418C356,-418 294,-418 294,-418 288,-418 282,-412 282,-406 282,-406 282,-394 282,-394 282,-388 288,-382 294,-382 294,-382 356,-382 356,-382 362,-382 368,-388 368,-394 368,-394 368,-406 368,-406 368,-412 362,-418 356,-418"/>
<text text-anchor="start" x="313" y="-401.8" font-family="Times,serif" font-size="14.00" fill="#000000">help</text>
<text text-anchor="start" x="290" y="-391" font-family="Times,serif" font-size="10.00" fill="#000000">Display this help</text>
</g>
</g>
</svg>
